HIERARCHY
ROOT Hips
{
  OFFSET 0.000000 0.000000 0.000000
  CHANNELS 6 Xposition Yposition Zposition Xrotation Yrotation Zrotation
  JOINT Spine
  {
    OFFSET 0.211591 24.227834 -3.764787
    CHANNELS 3 Xrotation Yrotation Zrotation
    JOINT Chest
    {
      OFFSET 0.211591 24.227834 -3.764787
      CHANNELS 3 Xrotation Yrotation Zrotation
      JOINT Neck
      {
        OFFSET -1.100772 8.441563 -3.430650
        CHANNELS 3 Xrotation Yrotation Zrotation
        JOINT Head
        {
          OFFSET -1.192129 7.757112 -7.601908
          CHANNELS 3 Xrotation Yrotation Zrotation
          End Site
          {
            OFFSET -0.357639 2.327134 -2.280572
          }
        }
      }
      JOINT LeftShoulder
      {
        OFFSET 17.192089 0.613400 -1.554494
        CHANNELS 3 Xrotation Yrotation Zrotation
        JOINT LeftArm
        {
          OFFSET 6.822346 -20.001605 -11.416031
          CHANNELS 3 Xrotation Yrotation Zrotation
          JOINT LeftForeArm
          {
            OFFSET -10.811707 -3.287858 -20.004664
            CHANNELS 3 Xrotation Yrotation Zrotation
            JOINT LeftHand
            {
              OFFSET -2.972239 -0.032078 -2.791873
              CHANNELS 3 Xrotation Yrotation Zrotation
              End Site
              {
                OFFSET -0.891672 -0.009623 -0.837562
              }
            }
          }
        }
      }
      JOINT RightShoulder
      {
        OFFSET -17.192089 -0.613400 1.554494
        CHANNELS 3 Xrotation Yrotation Zrotation
        JOINT RightArm
        {
          OFFSET -7.078612 -20.128798 -9.457155
          CHANNELS 3 Xrotation Yrotation Zrotation
          JOINT RightForeArm
          {
            OFFSET 6.068787 -1.370308 -22.325569
            CHANNELS 3 Xrotation Yrotation Zrotation
            JOINT RightHand
            {
              OFFSET 2.627653 0.279547 -3.282648
              CHANNELS 3 Xrotation Yrotation Zrotation
              End Site
              {
                OFFSET 0.788296 0.083864 -0.984794
              }
            }
          }
        }
      }
    }
  }
  JOINT LeftUpLeg
  {
    OFFSET 11.367086 0.027478 -2.758015
    CHANNELS 3 Xrotation Yrotation Zrotation
    JOINT LeftLeg
    {
      OFFSET 2.451199 -39.057141 -4.768226
      CHANNELS 3 Xrotation Yrotation Zrotation
      JOINT LeftFoot
      {
        OFFSET 10.058204 -39.973237 0.774249
        CHANNELS 3 Xrotation Yrotation Zrotation
        End Site
        {
          OFFSET 3.017461 -11.991971 0.232275
        }
      }
    }
  }
  JOINT RightUpLeg
  {
    OFFSET -11.367086 -0.027478 2.758015
    CHANNELS 3 Xrotation Yrotation Zrotation
    JOINT RightLeg
    {
      OFFSET -4.668361 -37.080477 -5.635053
      CHANNELS 3 Xrotation Yrotation Zrotation
      JOINT RightFoot
      {
        OFFSET -2.542494 -41.040053 5.594103
        CHANNELS 3 Xrotation Yrotation Zrotation
        End Site
        {
          OFFSET -0.762748 -12.312016 1.678231
        }
      }
    }
  }
}
MOTION
Frames: 7
Frame Time: 0.083333
0.623796 59.976629 -3.133672 -0.697435 0.072172 0.388394 0.000000 0.000000 0.000000 0.352165 -0.273145 -0.732244 0.049268 -0.202876 0.003330 5.000000 0.000000 0.000000 2.134006 0.520733 0.727072 5.895955 -1.000450 -1.154307 0.000000 0.000000 0.000000 0.000000 0.000000 0.000000 1.197083 -0.093537 0.279394 2.056792 -0.027777 0.136927 0.000000 0.000000 0.000000 0.000000 0.000000 0.000000 0.337191 -0.092310 -0.799707 -1.259098 -0.466226 0.731176 0.000000 0.000000 0.000000 -8.135102 1.051102 0.239760 5.539779 -1.240365 -2.342207 0.000000 0.000000 0.000000
1.112083 59.987378 -4.293219 -0.696426 0.072060 0.387906 0.000000 0.000000 0.000000 0.344338 -0.283232 -0.751852 0.050550 -0.217908 0.000930 5.000000 0.000000 0.000000 2.059838 0.528660 0.806551 5.083872 -0.949739 -1.101096 0.000000 0.000000 0.000000 0.000000 0.000000 0.000000 1.389209 -0.090687 0.215232 1.584119 0.060153 0.242049 0.000000 0.000000 0.000000 0.000000 0.000000 0.000000 0.260716 -0.097665 -0.455488 -1.403142 -0.408903 0.448976 0.000000 0.000000 0.000000 -8.529986 1.082427 0.263313 5.985103 -1.265654 -2.209505 0.000000 0.000000 0.000000
2.134940 60.267459 -6.046900 -0.696430 0.072041 0.387790 0.000000 0.000000 0.000000 0.344338 -0.283513 -0.752443 0.050626 -0.218365 0.000870 5.000000 0.000000 0.000000 5.600364 1.547209 2.648483 12.206637 -2.508389 -3.018619 0.000000 0.000000 0.000000 0.000000 0.000000 0.000000 4.491161 -0.062978 0.349915 3.039039 0.253497 1.157304 61.274006 -38.618738 30.376591 0.000000 0.000000 0.000000 0.596541 -0.304288 -0.118160 -4.315281 -0.902948 0.745146 0.000000 0.000000 0.000000 -7.439931 1.066763 -1.195163 3.254234 -1.045191 -1.244339 0.000000 0.000000 0.000000
3.857856 61.691315 -6.315142 -1.294159 0.154744 0.856547 0.000000 0.000000 0.000000 0.441234 -0.837260 -2.130642 0.095965 -0.871687 -0.089092 5.000000 0.000000 0.000000 7.520164 2.413062 4.842435 13.058341 -3.253416 -4.209780 0.000000 0.000000 0.000000 0.000000 0.000000 0.000000 7.799330 0.737223 -0.415005 0.974631 0.119458 3.220983 0.000000 0.000000 0.000000 0.000000 0.000000 0.000000 0.972292 -0.523321 2.832966 -6.914412 -0.514405 0.209425 0.000000 0.000000 0.000000 -9.039566 1.296202 -2.473369 3.698596 -1.062661 0.610020 0.000000 0.000000 0.000000
5.955308 62.748015 -6.037021 -0.529289 0.100739 0.602086 0.000000 0.000000 0.000000 -0.446714 -1.404389 -3.241291 0.109460 -1.954868 -0.322623 5.000000 0.000000 0.000000 7.638702 3.154434 5.974768 14.776592 -3.725908 -4.376316 0.000000 0.000000 0.000000 0.000000 0.000000 0.000000 9.248066 2.213235 -1.571491 -0.759368 -1.246345 5.459151 68.091072 -18.800691 54.065979 0.000000 0.000000 0.000000 3.353768 -0.662862 5.536547 -7.921444 0.531991 0.539666 0.000000 0.000000 0.000000 -10.199391 1.556283 -4.304503 3.429613 -1.274022 2.423296 0.000000 0.000000 0.000000
7.407208 62.545324 -5.016977 -0.719232 0.011652 0.039165 0.000000 0.000000 0.000000 -0.197812 -1.830454 -3.874633 0.384504 -2.617029 -0.360807 5.000000 0.000000 0.000000 6.415831 4.490190 4.544712 19.692723 -4.854881 -2.316342 0.000000 0.000000 0.000000 0.000000 0.000000 0.000000 10.155106 1.574172 -0.329785 -1.161749 -1.085026 4.867352 0.000000 0.000000 0.000000 0.000000 0.000000 0.000000 8.394312 -0.644485 7.124087 -10.060603 1.428696 -1.837588 0.000000 0.000000 0.000000 -11.729307 1.826480 -6.987013 1.863785 -1.922522 3.830969 0.000000 0.000000 0.000000
7.589359 61.413604 -4.692751 -1.190066 -0.068065 -0.466524 0.000000 0.000000 0.000000 1.091688 -1.830848 -4.066519 0.712882 -2.780282 -0.390685 5.000000 0.000000 0.000000 2.389371 6.105537 0.879858 27.927822 -4.786320 2.228060 0.000000 0.000000 0.000000 0.000000 0.000000 0.000000 8.697918 -1.226184 6.385181 1.070604 0.855483 -1.255288 0.000000 0.000000 0.000000 0.000000 0.000000 0.000000 13.119835 -0.408287 7.595196 -10.971764 2.214669 -1.958132 0.000000 0.000000 0.000000 -13.545744 1.936875 -7.784066 -1.776796 -2.916414 2.972141 0.000000 0.000000 0.000000
